{"glyphs":{"\u0000":{"ha":0,"x_min":0,"x_max":0,"o":""},"\n":{"ha":0,"x_min":0,"x_max":0,"o":""},"\r":{"ha":0,"x_min":0,"x_max":0,"o":""}," ":{"ha":313,"x_min":0,"x_max":0,"o":""},"!":{"ha":242,"x_min":0,"x_max":0,"o":"m 47 972 l 47 231 l 193 231 l 193 972 z m 193 118 l 47 118 l 47 0 l 193 0 z "},"\"":{"ha":379,"x_min":0,"x_max":0,"o":"m 72 690 l 129 690 l 171 974 l 31 974 z m 208 974 l 249 690 l 306 690 l 348 974 z "},"“":{"ha":379,"x_min":0,"x_max":0,"o":"m 72 690 l 129 690 l 171 974 l 31 974 z m 208 974 l 249 690 l 306 690 l 348 974 z "},"”":{"ha":379,"x_min":0,"x_max":0,"o":"m 72 690 l 129 690 l 171 974 l 31 974 z m 208 974 l 249 690 l 306 690 l 348 974 z "},"'":{"ha":211,"x_min":0,"x_max":0,"o":"m 32 972 l 32 854 l 89 854 l 54 719 l 115 719 l 178 854 l 178 972 z "},"‘":{"ha":211,"x_min":0,"x_max":0,"o":"m 32 972 l 32 854 l 89 854 l 54 719 l 115 719 l 178 854 l 178 972 z "},"’":{"ha":211,"x_min":0,"x_max":0,"o":"m 32 972 l 32 854 l 89 854 l 54 719 l 115 719 l 178 854 l 178 972 z "},"(":{"ha":335,"x_min":0,"x_max":0,"o":"m 303 854 l 303 964 l 243 964 b 47 768 117 964 47 894 l 47 188 b 243 -8 47 62 117 -8 l 303 -8 l 303 110 b 182 232 225 110 182 153 l 182 732 b 303 854 182 810 225 854 z "},")":{"ha":335,"x_min":0,"x_max":0,"o":"m 91 964 l 31 964 l 31 854 b 152 732 109 854 152 810 l 152 232 b 31 110 152 153 109 110 l 31 -8 l 91 -8 b 287 188 217 -8 287 62 l 287 768 b 91 964 287 894 217 964 z "},",":{"ha":206,"x_min":0,"x_max":0,"o":"m 29 120 l 29 2 l 87 2 l 51 -133 l 112 -133 l 175 2 l 175 120 z "},"-":{"ha":631,"x_min":0,"x_max":0,"o":"m 599 444 l 599 590 l 31 590 l 31 444 z "},".":{"ha":206,"x_min":0,"x_max":0,"o":"m 29 118 l 29 0 l 175 0 l 175 118 z "},":":{"ha":214,"x_min":0,"x_max":0,"o":"m 180 0 l 180 118 l 33 118 l 33 0 z m 180 550 l 180 668 l 33 668 l 33 550 z "},";":{"ha":214,"x_min":0,"x_max":0,"o":"m 33 2 l 91 2 l 55 -133 l 116 -133 l 180 2 l 180 120 l 33 120 z m 180 551 l 180 669 l 33 669 l 33 551 z "},"?":{"ha":546,"x_min":0,"x_max":0,"o":"m 44 0 l 191 0 l 191 118 l 44 118 z m 285 980 l 264 980 b 44 761 123 980 44 902 l 44 745 l 191 745 l 191 785 b 267 862 191 835 218 862 b 343 785 316 862 343 835 l 343 524 b 267 448 343 475 316 448 b 191 524 218 448 191 475 l 191 568 l 44 568 l 44 231 l 191 231 l 191 370 b 317 298 211 324 254 298 b 505 486 437 298 505 366 l 505 761 b 285 980 505 902 426 980 z "},"A":{"ha":551,"x_min":0,"x_max":0,"o":"m 167 972 l 4 0 l 161 0 l 181 137 l 370 137 l 389 0 l 546 0 l 383 972 z m 200 275 l 273 787 b 277 787 274 789 277 789 l 350 275 z "},"a":{"ha":551,"x_min":0,"x_max":0,"o":"m 167 972 l 4 0 l 161 0 l 181 137 l 370 137 l 389 0 l 546 0 l 383 972 z m 200 275 l 273 787 b 277 787 274 789 277 789 l 350 275 z "},"À":{"ha":551,"x_min":0,"x_max":0,"o":"m 167 972 l 4 0 l 161 0 l 181 137 l 370 137 l 389 0 l 546 0 l 383 972 z m 200 275 l 273 787 b 277 787 274 789 277 789 l 350 275 z "},"Á":{"ha":551,"x_min":0,"x_max":0,"o":"m 167 972 l 4 0 l 161 0 l 181 137 l 370 137 l 389 0 l 546 0 l 383 972 z m 200 275 l 273 787 b 277 787 274 789 277 789 l 350 275 z "},"Â":{"ha":551,"x_min":0,"x_max":0,"o":"m 167 972 l 4 0 l 161 0 l 181 137 l 370 137 l 389 0 l 546 0 l 383 972 z m 200 275 l 273 787 b 277 787 274 789 277 789 l 350 275 z "},"Ã":{"ha":551,"x_min":0,"x_max":0,"o":"m 167 972 l 4 0 l 161 0 l 181 137 l 370 137 l 389 0 l 546 0 l 383 972 z m 200 275 l 273 787 b 277 787 274 789 277 789 l 350 275 z "},"Ä":{"ha":551,"x_min":0,"x_max":0,"o":"m 167 972 l 4 0 l 161 0 l 181 137 l 370 137 l 389 0 l 546 0 l 383 972 z m 200 275 l 273 787 b 277 787 274 789 277 789 l 350 275 z "},"Å":{"ha":551,"x_min":0,"x_max":0,"o":"m 167 972 l 4 0 l 161 0 l 181 137 l 370 137 l 389 0 l 546 0 l 383 972 z m 200 275 l 273 787 b 277 787 274 789 277 789 l 350 275 z "},"à":{"ha":551,"x_min":0,"x_max":0,"o":"m 167 972 l 4 0 l 161 0 l 181 137 l 370 137 l 389 0 l 546 0 l 383 972 z m 200 275 l 273 787 b 277 787 274 789 277 789 l 350 275 z "},"á":{"ha":551,"x_min":0,"x_max":0,"o":"m 167 972 l 4 0 l 161 0 l 181 137 l 370 137 l 389 0 l 546 0 l 383 972 z m 200 275 l 273 787 b 277 787 274 789 277 789 l 350 275 z "},"â":{"ha":551,"x_min":0,"x_max":0,"o":"m 167 972 l 4 0 l 161 0 l 181 137 l 370 137 l 389 0 l 546 0 l 383 972 z m 200 275 l 273 787 b 277 787 274 789 277 789 l 350 275 z "},"ã":{"ha":551,"x_min":0,"x_max":0,"o":"m 167 972 l 4 0 l 161 0 l 181 137 l 370 137 l 389 0 l 546 0 l 383 972 z m 200 275 l 273 787 b 277 787 274 789 277 789 l 350 275 z "},"ä":{"ha":551,"x_min":0,"x_max":0,"o":"m 167 972 l 4 0 l 161 0 l 181 137 l 370 137 l 389 0 l 546 0 l 383 972 z m 200 275 l 273 787 b 277 787 274 789 277 789 l 350 275 z "},"å":{"ha":551,"x_min":0,"x_max":0,"o":"m 167 972 l 4 0 l 161 0 l 181 137 l 370 137 l 389 0 l 546 0 l 383 972 z m 200 275 l 273 787 b 277 787 274 789 277 789 l 350 275 z "},"B":{"ha":551,"x_min":0,"x_max":0,"o":"m 371 524 b 505 713 458 544 505 610 l 505 776 b 309 972 505 902 435 972 l 49 972 l 49 0 l 325 0 b 521 196 451 0 521 70 l 521 321 b 371 514 521 431 468 498 l 371 524 z m 239 862 b 360 741 316 862 360 819 l 360 700 b 239 579 360 622 316 579 l 195 579 l 195 862 z m 386 240 b 264 118 386 161 343 118 l 195 118 l 195 439 l 264 439 b 386 318 343 439 386 396 z "},"b":{"ha":551,"x_min":0,"x_max":0,"o":"m 371 524 b 505 713 458 544 505 610 l 505 776 b 309 972 505 902 435 972 l 49 972 l 49 0 l 325 0 b 521 196 451 0 521 70 l 521 321 b 371 514 521 431 468 498 l 371 524 z m 239 862 b 360 741 316 862 360 819 l 360 700 b 239 579 360 622 316 579 l 195 579 l 195 862 z m 386 240 b 264 118 386 161 343 118 l 195 118 l 195 439 l 264 439 b 386 318 343 439 386 396 z "},"C":{"ha":519,"x_min":0,"x_max":0,"o":"m 292 980 l 249 980 b 42 773 116 980 42 906 l 42 199 b 249 -8 42 66 116 -8 l 292 -8 b 499 199 425 -8 499 66 l 499 231 l 355 231 l 355 205 b 268 118 355 149 324 118 b 182 205 213 118 182 149 l 182 775 b 268 862 182 831 213 862 b 355 775 324 862 355 831 l 355 651 l 499 651 l 499 773 b 292 980 499 906 425 980 z "},"c":{"ha":519,"x_min":0,"x_max":0,"o":"m 292 980 l 249 980 b 42 773 116 980 42 906 l 42 199 b 249 -8 42 66 116 -8 l 292 -8 b 499 199 425 -8 499 66 l 499 231 l 355 231 l 355 205 b 268 118 355 149 324 118 b 182 205 213 118 182 149 l 182 775 b 268 862 182 831 213 862 b 355 775 324 862 355 831 l 355 651 l 499 651 l 499 773 b 292 980 499 906 425 980 z "},"Ç":{"ha":519,"x_min":0,"x_max":0,"o":"m 292 980 l 249 980 b 42 773 116 980 42 906 l 42 199 b 249 -8 42 66 116 -8 l 292 -8 b 499 199 425 -8 499 66 l 499 231 l 355 231 l 355 205 b 268 118 355 149 324 118 b 182 205 213 118 182 149 l 182 775 b 268 862 182 831 213 862 b 355 775 324 862 355 831 l 355 651 l 499 651 l 499 773 b 292 980 499 906 425 980 z "},"ç":{"ha":519,"x_min":0,"x_max":0,"o":"m 292 980 l 249 980 b 42 773 116 980 42 906 l 42 199 b 249 -8 42 66 116 -8 l 292 -8 b 499 199 425 -8 499 66 l 499 231 l 355 231 l 355 205 b 268 118 355 149 324 118 b 182 205 213 118 182 149 l 182 775 b 268 862 182 831 213 862 b 355 775 324 862 355 831 l 355 651 l 499 651 l 499 773 b 292 980 499 906 425 980 z "},"D":{"ha":565,"x_min":0,"x_max":0,"o":"m 526 727 b 279 973 521 885 438 973 l 49 973 l 49 0 l 279 0 b 526 247 438 0 521 88 b 526 727 533 405 526 727 z m 392 241 b 268 118 392 162 348 118 l 174 118 l 174 862 l 268 862 b 392 738 348 862 392 818 z "},"d":{"ha":565,"x_min":0,"x_max":0,"o":"m 526 727 b 279 973 521 885 438 973 l 49 973 l 49 0 l 279 0 b 526 247 438 0 521 88 b 526 727 533 405 526 727 z m 392 241 b 268 118 392 162 348 118 l 174 118 l 174 862 l 268 862 b 392 738 348 862 392 818 z "},"E":{"ha":481,"x_min":0,"x_max":0,"o":"m 49 972 l 49 -1 l 463 -1 l 463 117 l 195 117 l 195 450 l 439 450 l 439 568 l 195 568 l 195 861 l 463 861 l 463 973 z "},"e":{"ha":481,"x_min":0,"x_max":0,"o":"m 49 972 l 49 -1 l 463 -1 l 463 117 l 195 117 l 195 450 l 439 450 l 439 568 l 195 568 l 195 861 l 463 861 l 463 973 z "},"È":{"ha":481,"x_min":0,"x_max":0,"o":"m 49 972 l 49 -1 l 463 -1 l 463 117 l 195 117 l 195 450 l 439 450 l 439 568 l 195 568 l 195 861 l 463 861 l 463 973 z "},"É":{"ha":481,"x_min":0,"x_max":0,"o":"m 49 972 l 49 -1 l 463 -1 l 463 117 l 195 117 l 195 450 l 439 450 l 439 568 l 195 568 l 195 861 l 463 861 l 463 973 z "},"Ê":{"ha":481,"x_min":0,"x_max":0,"o":"m 49 972 l 49 -1 l 463 -1 l 463 117 l 195 117 l 195 450 l 439 450 l 439 568 l 195 568 l 195 861 l 463 861 l 463 973 z "},"Ë":{"ha":481,"x_min":0,"x_max":0,"o":"m 49 972 l 49 -1 l 463 -1 l 463 117 l 195 117 l 195 450 l 439 450 l 439 568 l 195 568 l 195 861 l 463 861 l 463 973 z "},"è":{"ha":481,"x_min":0,"x_max":0,"o":"m 49 972 l 49 -1 l 463 -1 l 463 117 l 195 117 l 195 450 l 439 450 l 439 568 l 195 568 l 195 861 l 463 861 l 463 973 z "},"é":{"ha":481,"x_min":0,"x_max":0,"o":"m 49 972 l 49 -1 l 463 -1 l 463 117 l 195 117 l 195 450 l 439 450 l 439 568 l 195 568 l 195 861 l 463 861 l 463 973 z "},"ê":{"ha":481,"x_min":0,"x_max":0,"o":"m 49 972 l 49 -1 l 463 -1 l 463 117 l 195 117 l 195 450 l 439 450 l 439 568 l 195 568 l 195 861 l 463 861 l 463 973 z "},"ë":{"ha":481,"x_min":0,"x_max":0,"o":"m 49 972 l 49 -1 l 463 -1 l 463 117 l 195 117 l 195 450 l 439 450 l 439 568 l 195 568 l 195 861 l 463 861 l 463 973 z "},"F":{"ha":465,"x_min":0,"x_max":0,"o":"m 463 862 l 463 973 l 49 972 l 49 0 l 195 0 l 195 450 l 439 450 l 439 568 l 195 568 l 195 862 z "},"f":{"ha":465,"x_min":0,"x_max":0,"o":"m 463 862 l 463 973 l 49 972 l 49 0 l 195 0 l 195 450 l 439 450 l 439 568 l 195 568 l 195 862 z "},"G":{"ha":540,"x_min":0,"x_max":0,"o":"m 499 651 l 499 773 b 292 980 499 906 425 980 l 249 980 b 42 773 116 980 42 906 l 42 199 b 249 -8 42 66 116 -8 b 393 38 310 -8 358 8 l 439 0 l 499 0 l 499 498 l 264 498 l 264 380 l 355 380 l 355 205 b 268 118 355 149 324 118 b 182 205 213 118 182 149 l 182 775 b 268 862 182 831 213 862 b 355 775 324 862 355 831 l 355 651 z "},"g":{"ha":540,"x_min":0,"x_max":0,"o":"m 499 651 l 499 773 b 292 980 499 906 425 980 l 249 980 b 42 773 116 980 42 906 l 42 199 b 249 -8 42 66 116 -8 b 393 38 310 -8 358 8 l 439 0 l 499 0 l 499 498 l 264 498 l 264 380 l 355 380 l 355 205 b 268 118 355 149 324 118 b 182 205 213 118 182 149 l 182 775 b 268 862 182 831 213 862 b 355 775 324 862 355 831 l 355 651 z "},"H":{"ha":592,"x_min":0,"x_max":0,"o":"m 397 568 l 195 568 l 195 972 l 49 972 l 49 0 l 195 0 l 195 450 l 397 450 l 397 0 l 543 0 l 543 972 l 397 972 z "},"h":{"ha":592,"x_min":0,"x_max":0,"o":"m 397 568 l 195 568 l 195 972 l 49 972 l 49 0 l 195 0 l 195 450 l 397 450 l 397 0 l 543 0 l 543 972 l 397 972 z "},"I":{"ha":244,"x_min":0,"x_max":0,"o":"m 195 0 l 195 972 l 49 972 l 49 0 z "},"i":{"ha":244,"x_min":0,"x_max":0,"o":"m 195 0 l 195 972 l 49 972 l 49 0 z "},"Ì":{"ha":244,"x_min":0,"x_max":0,"o":"m 195 0 l 195 972 l 49 972 l 49 0 z "},"Í":{"ha":244,"x_min":0,"x_max":0,"o":"m 195 0 l 195 972 l 49 972 l 49 0 z "},"Î":{"ha":244,"x_min":0,"x_max":0,"o":"m 195 0 l 195 972 l 49 972 l 49 0 z "},"Ï":{"ha":244,"x_min":0,"x_max":0,"o":"m 195 0 l 195 972 l 49 972 l 49 0 z "},"ì":{"ha":244,"x_min":0,"x_max":0,"o":"m 195 0 l 195 972 l 49 972 l 49 0 z "},"í":{"ha":244,"x_min":0,"x_max":0,"o":"m 195 0 l 195 972 l 49 972 l 49 0 z "},"î":{"ha":244,"x_min":0,"x_max":0,"o":"m 195 0 l 195 972 l 49 972 l 49 0 z "},"ï":{"ha":244,"x_min":0,"x_max":0,"o":"m 195 0 l 195 972 l 49 972 l 49 0 z "},"J":{"ha":494,"x_min":0,"x_max":0,"o":"m 309 972 l 309 205 b 222 118 309 149 278 118 b 136 205 167 118 136 149 l 136 231 l -8 231 l -8 199 b 199 -8 -8 66 66 -8 l 242 -8 b 449 199 375 -8 449 66 l 449 972 z "},"j":{"ha":494,"x_min":0,"x_max":0,"o":"m 309 972 l 309 205 b 222 118 309 149 278 118 b 136 205 167 118 136 149 l 136 231 l -8 231 l -8 199 b 199 -8 -8 66 66 -8 l 242 -8 b 449 199 375 -8 449 66 l 449 972 z "},"K":{"ha":564,"x_min":0,"x_max":0,"o":"m 560 972 l 395 972 l 195 535 l 195 972 l 49 972 l 49 0 l 195 0 l 195 254 l 257 376 l 405 0 l 568 0 l 339 538 z "},"k":{"ha":564,"x_min":0,"x_max":0,"o":"m 560 972 l 395 972 l 195 535 l 195 972 l 49 972 l 49 0 l 195 0 l 195 254 l 257 376 l 405 0 l 568 0 l 339 538 z "},"L":{"ha":469,"x_min":0,"x_max":0,"o":"m 195 118 l 195 972 l 49 972 l 49 0 l 483 0 l 483 118 z "},"l":{"ha":469,"x_min":0,"x_max":0,"o":"m 195 118 l 195 972 l 49 972 l 49 0 l 483 0 l 483 118 z "},"M":{"ha":765,"x_min":0,"x_max":0,"o":"m 488 972 l 382 293 l 276 972 l 49 972 l 49 0 l 195 0 l 195 646 l 326 0 l 439 0 l 569 646 l 569 0 l 716 0 l 716 972 z "},"m":{"ha":765,"x_min":0,"x_max":0,"o":"m 488 972 l 382 293 l 276 972 l 49 972 l 49 0 l 195 0 l 195 646 l 326 0 l 439 0 l 569 646 l 569 0 l 716 0 l 716 972 z "},"N":{"ha":606,"x_min":0,"x_max":0,"o":"m 410 364 l 249 972 l 49 972 l 49 0 l 195 0 l 195 746 l 393 0 l 557 0 l 557 972 l 410 972 z "},"n":{"ha":606,"x_min":0,"x_max":0,"o":"m 410 364 l 249 972 l 49 972 l 49 0 l 195 0 l 195 746 l 393 0 l 557 0 l 557 972 l 410 972 z "},"Ñ":{"ha":606,"x_min":0,"x_max":0,"o":"m 410 364 l 249 972 l 49 972 l 49 0 l 195 0 l 195 746 l 393 0 l 557 0 l 557 972 l 410 972 z "},"ñ":{"ha":606,"x_min":0,"x_max":0,"o":"m 410 364 l 249 972 l 49 972 l 49 0 l 195 0 l 195 746 l 393 0 l 557 0 l 557 972 l 410 972 z "},"O":{"ha":551,"x_min":0,"x_max":0,"o":"m 276 980 b 40 745 124 980 40 896 l 40 227 b 276 -8 40 76 124 -8 b 511 227 427 -8 511 76 l 511 745 b 276 980 511 896 427 980 z m 363 205 b 276 118 363 149 332 118 b 189 205 220 118 189 149 l 189 775 b 276 862 189 831 220 862 b 363 775 332 862 363 831 z "},"o":{"ha":551,"x_min":0,"x_max":0,"o":"m 276 980 b 40 745 124 980 40 896 l 40 227 b 276 -8 40 76 124 -8 b 511 227 427 -8 511 76 l 511 745 b 276 980 511 896 427 980 z m 363 205 b 276 118 363 149 332 118 b 189 205 220 118 189 149 l 189 775 b 276 862 189 831 220 862 b 363 775 332 862 363 831 z "},"Ò":{"ha":551,"x_min":0,"x_max":0,"o":"m 276 980 b 40 745 124 980 40 896 l 40 227 b 276 -8 40 76 124 -8 b 511 227 427 -8 511 76 l 511 745 b 276 980 511 896 427 980 z m 363 205 b 276 118 363 149 332 118 b 189 205 220 118 189 149 l 189 775 b 276 862 189 831 220 862 b 363 775 332 862 363 831 z "},"Ó":{"ha":551,"x_min":0,"x_max":0,"o":"m 276 980 b 40 745 124 980 40 896 l 40 227 b 276 -8 40 76 124 -8 b 511 227 427 -8 511 76 l 511 745 b 276 980 511 896 427 980 z m 363 205 b 276 118 363 149 332 118 b 189 205 220 118 189 149 l 189 775 b 276 862 189 831 220 862 b 363 775 332 862 363 831 z "},"Ô":{"ha":551,"x_min":0,"x_max":0,"o":"m 276 980 b 40 745 124 980 40 896 l 40 227 b 276 -8 40 76 124 -8 b 511 227 427 -8 511 76 l 511 745 b 276 980 511 896 427 980 z m 363 205 b 276 118 363 149 332 118 b 189 205 220 118 189 149 l 189 775 b 276 862 189 831 220 862 b 363 775 332 862 363 831 z "},"Õ":{"ha":551,"x_min":0,"x_max":0,"o":"m 276 980 b 40 745 124 980 40 896 l 40 227 b 276 -8 40 76 124 -8 b 511 227 427 -8 511 76 l 511 745 b 276 980 511 896 427 980 z m 363 205 b 276 118 363 149 332 118 b 189 205 220 118 189 149 l 189 775 b 276 862 189 831 220 862 b 363 775 332 862 363 831 z "},"Ö":{"ha":551,"x_min":0,"x_max":0,"o":"m 276 980 b 40 745 124 980 40 896 l 40 227 b 276 -8 40 76 124 -8 b 511 227 427 -8 511 76 l 511 745 b 276 980 511 896 427 980 z m 363 205 b 276 118 363 149 332 118 b 189 205 220 118 189 149 l 189 775 b 276 862 189 831 220 862 b 363 775 332 862 363 831 z "},"Ø":{"ha":551,"x_min":0,"x_max":0,"o":"m 276 980 b 40 745 124 980 40 896 l 40 227 b 276 -8 40 76 124 -8 b 511 227 427 -8 511 76 l 511 745 b 276 980 511 896 427 980 z m 363 205 b 276 118 363 149 332 118 b 189 205 220 118 189 149 l 189 775 b 276 862 189 831 220 862 b 363 775 332 862 363 831 z "},"ò":{"ha":551,"x_min":0,"x_max":0,"o":"m 276 980 b 40 745 124 980 40 896 l 40 227 b 276 -8 40 76 124 -8 b 511 227 427 -8 511 76 l 511 745 b 276 980 511 896 427 980 z m 363 205 b 276 118 363 149 332 118 b 189 205 220 118 189 149 l 189 775 b 276 862 189 831 220 862 b 363 775 332 862 363 831 z "},"ó":{"ha":551,"x_min":0,"x_max":0,"o":"m 276 980 b 40 745 124 980 40 896 l 40 227 b 276 -8 40 76 124 -8 b 511 227 427 -8 511 76 l 511 745 b 276 980 511 896 427 980 z m 363 205 b 276 118 363 149 332 118 b 189 205 220 118 189 149 l 189 775 b 276 862 189 831 220 862 b 363 775 332 862 363 831 z "},"ô":{"ha":551,"x_min":0,"x_max":0,"o":"m 276 980 b 40 745 124 980 40 896 l 40 227 b 276 -8 40 76 124 -8 b 511 227 427 -8 511 76 l 511 745 b 276 980 511 896 427 980 z m 363 205 b 276 118 363 149 332 118 b 189 205 220 118 189 149 l 189 775 b 276 862 189 831 220 862 b 363 775 332 862 363 831 z "},"õ":{"ha":551,"x_min":0,"x_max":0,"o":"m 276 980 b 40 745 124 980 40 896 l 40 227 b 276 -8 40 76 124 -8 b 511 227 427 -8 511 76 l 511 745 b 276 980 511 896 427 980 z m 363 205 b 276 118 363 149 332 118 b 189 205 220 118 189 149 l 189 775 b 276 862 189 831 220 862 b 363 775 332 862 363 831 z "},"ö":{"ha":551,"x_min":0,"x_max":0,"o":"m 276 980 b 40 745 124 980 40 896 l 40 227 b 276 -8 40 76 124 -8 b 511 227 427 -8 511 76 l 511 745 b 276 980 511 896 427 980 z m 363 205 b 276 118 363 149 332 118 b 189 205 220 118 189 149 l 189 775 b 276 862 189 831 220 862 b 363 775 332 862 363 831 z "},"ø":{"ha":551,"x_min":0,"x_max":0,"o":"m 276 980 b 40 745 124 980 40 896 l 40 227 b 276 -8 40 76 124 -8 b 511 227 427 -8 511 76 l 511 745 b 276 980 511 896 427 980 z m 363 205 b 276 118 363 149 332 118 b 189 205 220 118 189 149 l 189 775 b 276 862 189 831 220 862 b 363 775 332 862 363 831 z "},"P":{"ha":538,"x_min":0,"x_max":0,"o":"m 325 972 l 49 972 l 49 0 l 195 0 l 195 351 l 325 351 b 521 547 450 351 521 421 l 521 776 b 325 972 521 902 451 972 z m 386 586 b 264 465 386 508 343 465 l 195 465 l 195 862 l 264 862 b 386 740 343 862 386 818 z "},"p":{"ha":538,"x_min":0,"x_max":0,"o":"m 325 972 l 49 972 l 49 0 l 195 0 l 195 351 l 325 351 b 521 547 450 351 521 421 l 521 776 b 325 972 521 902 451 972 z m 386 586 b 264 465 386 508 343 465 l 195 465 l 195 862 l 264 862 b 386 740 343 862 386 818 z "},"Q":{"ha":551,"x_min":0,"x_max":0,"o":"m 511 227 l 511 745 b 276 980 511 896 427 980 b 40 745 125 980 40 896 l 40 227 b 218 -3 40 97 104 16 l 218 -57 b 320 -159 218 -122 255 -159 l 454 -159 l 454 -60 l 362 -60 b 335 -34 345 -60 335 -51 l 335 -3 b 511 227 448 18 511 98 z m 189 775 b 276 862 189 831 220 862 b 363 775 332 862 363 831 l 363 205 b 276 118 363 149 332 118 b 189 205 220 118 189 149 z "},"q":{"ha":551,"x_min":0,"x_max":0,"o":"m 511 227 l 511 745 b 276 980 511 896 427 980 b 40 745 125 980 40 896 l 40 227 b 218 -3 40 97 104 16 l 218 -57 b 320 -159 218 -122 255 -159 l 454 -159 l 454 -60 l 362 -60 b 335 -34 345 -60 335 -51 l 335 -3 b 511 227 448 18 511 98 z m 189 775 b 276 862 189 831 220 862 b 363 775 332 862 363 831 l 363 205 b 276 118 363 149 332 118 b 189 205 220 118 189 149 z "},"R":{"ha":560,"x_min":0,"x_max":0,"o":"m 325 972 l 49 972 l 49 0 l 195 0 l 195 351 l 301 351 b 378 274 350 351 378 323 l 378 0 l 513 0 l 513 274 b 455 390 513 329 492 369 b 521 547 497 423 521 476 l 521 776 b 325 972 521 902 451 972 z m 386 586 b 264 465 386 508 343 465 l 195 465 l 195 862 l 264 862 b 386 740 343 862 386 818 z "},"r":{"ha":560,"x_min":0,"x_max":0,"o":"m 325 972 l 49 972 l 49 0 l 195 0 l 195 351 l 301 351 b 378 274 350 351 378 323 l 378 0 l 513 0 l 513 274 b 455 390 513 329 492 369 b 521 547 497 423 521 476 l 521 776 b 325 972 521 902 451 972 z m 386 586 b 264 465 386 508 343 465 l 195 465 l 195 862 l 264 862 b 386 740 343 862 386 818 z "},"S":{"ha":511,"x_min":0,"x_max":0,"o":"m 255 870 b 340 785 310 870 340 840 l 340 678 l 465 678 l 465 784 b 269 980 465 910 395 980 l 222 980 b 26 784 97 980 26 910 b 265 372 26 563 187 450 b 337 199 343 293 337 199 b 248 110 337 142 305 110 b 160 199 191 110 160 142 l 160 291 l 26 291 l 27 199 b 233 -8 27 66 101 -8 l 283 -8 b 490 199 416 -8 490 66 b 368 463 490 199 506 325 b 170 785 231 601 170 652 b 255 870 170 840 201 870 z "},"s":{"ha":511,"x_min":0,"x_max":0,"o":"m 255 870 b 340 785 310 870 340 840 l 340 678 l 465 678 l 465 784 b 269 980 465 910 395 980 l 222 980 b 26 784 97 980 26 910 b 265 372 26 563 187 450 b 337 199 343 293 337 199 b 248 110 337 142 305 110 b 160 199 191 110 160 142 l 160 291 l 26 291 l 27 199 b 233 -8 27 66 101 -8 l 283 -8 b 490 199 416 -8 490 66 b 368 463 490 199 506 325 b 170 785 231 601 170 652 b 255 870 170 840 201 870 z "},"T":{"ha":457,"x_min":0,"x_max":0,"o":"m -11 862 l 155 862 l 155 0 l 301 0 l 301 862 l 467 862 l 467 973 l -11 973 z "},"t":{"ha":457,"x_min":0,"x_max":0,"o":"m -11 862 l 155 862 l 155 0 l 301 0 l 301 862 l 467 862 l 467 973 l -11 973 z "},"U":{"ha":560,"x_min":0,"x_max":0,"o":"m 367 972 l 367 205 b 280 118 367 149 336 118 b 193 205 224 118 193 149 l 193 972 l 44 972 l 44 227 b 280 -8 44 76 129 -8 b 515 227 431 -8 515 76 l 515 972 z "},"u":{"ha":560,"x_min":0,"x_max":0,"o":"m 367 972 l 367 205 b 280 118 367 149 336 118 b 193 205 224 118 193 149 l 193 972 l 44 972 l 44 227 b 280 -8 44 76 129 -8 b 515 227 431 -8 515 76 l 515 972 z "},"Ù":{"ha":560,"x_min":0,"x_max":0,"o":"m 367 972 l 367 205 b 280 118 367 149 336 118 b 193 205 224 118 193 149 l 193 972 l 44 972 l 44 227 b 280 -8 44 76 129 -8 b 515 227 431 -8 515 76 l 515 972 z "},"Ú":{"ha":560,"x_min":0,"x_max":0,"o":"m 367 972 l 367 205 b 280 118 367 149 336 118 b 193 205 224 118 193 149 l 193 972 l 44 972 l 44 227 b 280 -8 44 76 129 -8 b 515 227 431 -8 515 76 l 515 972 z "},"Û":{"ha":560,"x_min":0,"x_max":0,"o":"m 367 972 l 367 205 b 280 118 367 149 336 118 b 193 205 224 118 193 149 l 193 972 l 44 972 l 44 227 b 280 -8 44 76 129 -8 b 515 227 431 -8 515 76 l 515 972 z "},"Ü":{"ha":560,"x_min":0,"x_max":0,"o":"m 367 972 l 367 205 b 280 118 367 149 336 118 b 193 205 224 118 193 149 l 193 972 l 44 972 l 44 227 b 280 -8 44 76 129 -8 b 515 227 431 -8 515 76 l 515 972 z "},"ù":{"ha":560,"x_min":0,"x_max":0,"o":"m 367 972 l 367 205 b 280 118 367 149 336 118 b 193 205 224 118 193 149 l 193 972 l 44 972 l 44 227 b 280 -8 44 76 129 -8 b 515 227 431 -8 515 76 l 515 972 z "},"ú":{"ha":560,"x_min":0,"x_max":0,"o":"m 367 972 l 367 205 b 280 118 367 149 336 118 b 193 205 224 118 193 149 l 193 972 l 44 972 l 44 227 b 280 -8 44 76 129 -8 b 515 227 431 -8 515 76 l 515 972 z "},"û":{"ha":560,"x_min":0,"x_max":0,"o":"m 367 972 l 367 205 b 280 118 367 149 336 118 b 193 205 224 118 193 149 l 193 972 l 44 972 l 44 227 b 280 -8 44 76 129 -8 b 515 227 431 -8 515 76 l 515 972 z "},"ü":{"ha":560,"x_min":0,"x_max":0,"o":"m 367 972 l 367 205 b 280 118 367 149 336 118 b 193 205 224 118 193 149 l 193 972 l 44 972 l 44 227 b 280 -8 44 76 129 -8 b 515 227 431 -8 515 76 l 515 972 z "},"V":{"ha":582,"x_min":0,"x_max":0,"o":"m 420 972 l 290 118 l 160 972 l 6 972 l 163 0 l 417 0 l 575 972 z "},"v":{"ha":582,"x_min":0,"x_max":0,"o":"m 420 972 l 290 118 l 160 972 l 6 972 l 163 0 l 417 0 l 575 972 z "},"W":{"ha":792,"x_min":0,"x_max":0,"o":"m 637 972 l 545 200 l 465 972 l 325 972 l 246 200 l 154 972 l 13 972 l 128 0 l 336 0 l 395 564 l 455 0 l 662 0 l 778 972 z "},"w":{"ha":792,"x_min":0,"x_max":0,"o":"m 637 972 l 545 200 l 465 972 l 325 972 l 246 200 l 154 972 l 13 972 l 128 0 l 336 0 l 395 564 l 455 0 l 662 0 l 778 972 z "},"X":{"ha":554,"x_min":0,"x_max":0,"o":"m 545 972 l 399 972 l 277 591 l 155 972 l 9 972 l 170 494 l 3 0 l 143 0 l 277 396 l 411 0 l 551 0 l 384 494 z "},"x":{"ha":554,"x_min":0,"x_max":0,"o":"m 545 972 l 399 972 l 277 591 l 155 972 l 9 972 l 170 494 l 3 0 l 143 0 l 277 396 l 411 0 l 551 0 l 384 494 z "},"Y":{"ha":524,"x_min":0,"x_max":0,"o":"m 534 972 l 379 972 l 262 499 l 144 972 l -11 972 l 188 339 l 188 0 l 335 0 l 335 339 z "},"y":{"ha":524,"x_min":0,"x_max":0,"o":"m 534 972 l 379 972 l 262 499 l 144 972 l -11 972 l 188 339 l 188 0 l 335 0 l 335 339 z "},"Ý":{"ha":524,"x_min":0,"x_max":0,"o":"m 534 972 l 379 972 l 262 499 l 144 972 l -11 972 l 188 339 l 188 0 l 335 0 l 335 339 z "},"ý":{"ha":524,"x_min":0,"x_max":0,"o":"m 534 972 l 379 972 l 262 499 l 144 972 l -11 972 l 188 339 l 188 0 l 335 0 l 335 339 z "},"ÿ":{"ha":524,"x_min":0,"x_max":0,"o":"m 534 972 l 379 972 l 262 499 l 144 972 l -11 972 l 188 339 l 188 0 l 335 0 l 335 339 z "},"Ÿ":{"ha":524,"x_min":0,"x_max":0,"o":"m 534 972 l 379 972 l 262 499 l 144 972 l -11 972 l 188 339 l 188 0 l 335 0 l 335 339 z "},"Z":{"ha":475,"x_min":0,"x_max":0,"o":"m 31 972 l 31 862 l 327 862 l 6 118 l 6 0 l 464 0 l 464 118 l 155 118 l 457 816 l 457 972 z "},"z":{"ha":475,"x_min":0,"x_max":0,"o":"m 31 972 l 31 862 l 327 862 l 6 118 l 6 0 l 464 0 l 464 118 l 155 118 l 457 816 l 457 972 z "}," ":{"ha":313,"x_min":0,"x_max":0,"o":""},"­":{"ha":0,"x_min":0,"x_max":0,"o":""},"Ё":{"ha":481,"x_min":0,"x_max":0,"o":"m 421 1026 l 421 1136 l 311 1136 l 311 1026 z m 201 1026 l 201 1136 l 90 1136 l 90 1026 z m 463 862 l 463 973 l 49 972 l 49 0 l 463 0 l 463 118 l 195 118 l 195 451 l 439 451 l 439 569 l 195 569 l 195 862 z "},"ё":{"ha":481,"x_min":0,"x_max":0,"o":"m 421 1026 l 421 1136 l 311 1136 l 311 1026 z m 201 1026 l 201 1136 l 90 1136 l 90 1026 z m 463 862 l 463 973 l 49 972 l 49 0 l 463 0 l 463 118 l 195 118 l 195 451 l 439 451 l 439 569 l 195 569 l 195 862 z "},"А":{"ha":551,"x_min":0,"x_max":0,"o":"m 383 972 l 167 972 l 4 0 l 161 0 l 181 138 l 370 138 l 389 0 l 546 0 z m 200 275 l 273 787 b 277 787 274 790 277 790 l 350 275 z "},"а":{"ha":551,"x_min":0,"x_max":0,"o":"m 383 972 l 167 972 l 4 0 l 161 0 l 181 138 l 370 138 l 389 0 l 546 0 z m 200 275 l 273 787 b 277 787 274 790 277 790 l 350 275 z "},"Б":{"ha":544,"x_min":0,"x_max":0,"o":"m 325 621 l 195 621 l 195 861 l 462 861 l 462 972 l 49 972 l 49 0 l 325 0 b 521 196 451 0 521 71 l 521 426 b 325 621 521 551 451 621 z m 386 240 b 264 118 386 162 343 118 l 195 118 l 195 508 l 264 508 b 386 386 343 508 386 464 z "},"б":{"ha":544,"x_min":0,"x_max":0,"o":"m 325 621 l 195 621 l 195 861 l 462 861 l 462 972 l 49 972 l 49 0 l 325 0 b 521 196 451 0 521 71 l 521 426 b 325 621 521 551 451 621 z m 386 240 b 264 118 386 162 343 118 l 195 118 l 195 508 l 264 508 b 386 386 343 508 386 464 z "},"В":{"ha":551,"x_min":0,"x_max":0,"o":"m 371 514 l 371 524 b 505 713 458 544 505 610 l 505 777 b 309 972 505 902 435 972 l 49 972 l 49 0 l 325 0 b 521 196 451 0 521 70 l 521 322 b 371 514 521 431 468 498 z m 195 862 l 239 862 b 360 741 316 862 360 819 l 360 701 b 239 579 360 623 316 579 l 195 579 z m 386 240 b 264 118 386 162 343 118 l 195 118 l 195 440 l 264 440 b 386 318 343 440 386 396 z "},"в":{"ha":551,"x_min":0,"x_max":0,"o":"m 371 514 l 371 524 b 505 713 458 544 505 610 l 505 777 b 309 972 505 902 435 972 l 49 972 l 49 0 l 325 0 b 521 196 451 0 521 70 l 521 322 b 371 514 521 431 468 498 z m 195 862 l 239 862 b 360 741 316 862 360 819 l 360 701 b 239 579 360 623 316 579 l 195 579 z m 386 240 b 264 118 386 162 343 118 l 195 118 l 195 440 l 264 440 b 386 318 343 440 386 396 z "},"Г":{"ha":449,"x_min":0,"x_max":0,"o":"m 49 972 l 49 0 l 195 0 l 195 862 l 463 862 l 463 972 z "},"г":{"ha":449,"x_min":0,"x_max":0,"o":"m 49 972 l 49 0 l 195 0 l 195 862 l 463 862 l 463 972 z "},"Д":{"ha":649,"x_min":0,"x_max":0,"o":"m 632 -150 l 632 118 l 572 118 l 572 972 l 136 974 l 136 484 b 12 118 136 332 100 118 l -4 118 l -4 -150 l 116 -150 l 116 0 l 512 0 l 512 -150 l 632 -150 z m 426 118 l 207 118 b 270 490 241 180 270 296 l 270 862 l 426 862 z "},"д":{"ha":649,"x_min":0,"x_max":0,"o":"m 632 -150 l 632 118 l 572 118 l 572 972 l 136 974 l 136 484 b 12 118 136 332 100 118 l -4 118 l -4 -150 l 116 -150 l 116 0 l 512 0 l 512 -150 l 632 -150 z m 426 118 l 207 118 b 270 490 241 180 270 296 l 270 862 l 426 862 z "},"Е":{"ha":481,"x_min":0,"x_max":0,"o":"m 463 862 l 463 973 l 49 972 l 49 0 l 463 0 l 463 118 l 195 118 l 195 451 l 439 451 l 439 569 l 195 569 l 195 862 z "},"е":{"ha":481,"x_min":0,"x_max":0,"o":"m 463 862 l 463 973 l 49 972 l 49 0 l 463 0 l 463 118 l 195 118 l 195 451 l 439 451 l 439 569 l 195 569 l 195 862 z "},"Ж":{"ha":754,"x_min":0,"x_max":0,"o":"m 553 519 l 732 972 l 581 972 l 450 609 l 450 972 l 304 972 l 304 609 l 173 972 l 22 972 l 201 519 l -4 0 l 156 0 l 304 385 l 304 0 l 450 0 l 450 385 l 597 0 l 758 0 z "},"ж":{"ha":754,"x_min":0,"x_max":0,"o":"m 553 519 l 732 972 l 581 972 l 450 609 l 450 972 l 304 972 l 304 609 l 173 972 l 22 972 l 201 519 l -4 0 l 156 0 l 304 385 l 304 0 l 450 0 l 450 385 l 597 0 l 758 0 z "},"З":{"ha":514,"x_min":0,"x_max":0,"o":"m 479 755 b 241 979 479 899 385 979 b 17 755 97 979 17 899 l 17 693 l 150 693 l 150 769 b 241 861 150 828 182 861 b 333 769 300 861 333 828 l 333 670 b 241 578 333 611 300 578 l 164 578 l 164 439 l 241 439 b 333 347 300 439 333 406 l 333 208 b 241 117 333 150 300 117 b 150 208 182 117 150 150 l 150 230 l 17 230 l 17 216 b 241 -9 17 71 97 -9 b 479 216 385 -9 479 71 l 479 330 b 449 443 479 376 469 414 b 353 503 427 474 395 494 l 353 514 b 479 686 435 531 479 591 z "},"з":{"ha":514,"x_min":0,"x_max":0,"o":"m 479 755 b 241 979 479 899 385 979 b 17 755 97 979 17 899 l 17 693 l 150 693 l 150 769 b 241 861 150 828 182 861 b 333 769 300 861 333 828 l 333 670 b 241 578 333 611 300 578 l 164 578 l 164 439 l 241 439 b 333 347 300 439 333 406 l 333 208 b 241 117 333 150 300 117 b 150 208 182 117 150 150 l 150 230 l 17 230 l 17 216 b 241 -9 17 71 97 -9 b 479 216 385 -9 479 71 l 479 330 b 449 443 479 376 469 414 b 353 503 427 474 395 494 l 353 514 b 479 686 435 531 479 591 z "},"И":{"ha":606,"x_min":0,"x_max":0,"o":"m 356 972 l 195 365 l 195 972 l 49 972 l 49 0 l 212 0 l 410 746 l 410 0 l 557 0 l 557 972 z "},"и":{"ha":606,"x_min":0,"x_max":0,"o":"m 356 972 l 195 365 l 195 972 l 49 972 l 49 0 l 212 0 l 410 746 l 410 0 l 557 0 l 557 972 z "},"Й":{"ha":606,"x_min":0,"x_max":0,"o":"m 356 972 l 195 365 l 195 972 l 49 972 l 49 0 l 212 0 l 410 746 l 410 0 l 557 0 l 557 972 z m 204 1052 b 303 1026 229 1035 262 1026 b 402 1052 343 1026 376 1035 b 454 1136 429 1071 447 1099 l 358 1136 b 339 1106 355 1123 349 1113 b 303 1097 330 1100 318 1097 b 266 1106 288 1097 276 1100 b 247 1136 257 1113 250 1123 l 151 1136 b 204 1052 159 1099 177 1071 z "},"й":{"ha":606,"x_min":0,"x_max":0,"o":"m 356 972 l 195 365 l 195 972 l 49 972 l 49 0 l 212 0 l 410 746 l 410 0 l 557 0 l 557 972 z m 204 1052 b 303 1026 229 1035 262 1026 b 402 1052 343 1026 376 1035 b 454 1136 429 1071 447 1099 l 358 1136 b 339 1106 355 1123 349 1113 b 303 1097 330 1100 318 1097 b 266 1106 288 1097 276 1100 b 247 1136 257 1113 250 1123 l 151 1136 b 204 1052 159 1099 177 1071 z "},"К":{"ha":564,"x_min":0,"x_max":0,"o":"m 339 538 l 560 972 l 395 972 l 195 535 l 195 972 l 49 972 l 49 0 l 195 0 l 195 254 l 257 377 l 405 0 l 568 0 z "},"к":{"ha":564,"x_min":0,"x_max":0,"o":"m 339 538 l 560 972 l 395 972 l 195 535 l 195 972 l 49 972 l 49 0 l 195 0 l 195 254 l 257 377 l 405 0 l 568 0 z "},"Л":{"ha":599,"x_min":0,"x_max":0,"o":"m 135 971 b 91 232 135 971 96 303 b 0 117 87 167 79 117 l 0 -9 b 226 238 158 -9 218 86 b 263 861 231 361 253 713 l 403 861 l 403 -1 l 550 -1 l 550 971 z "},"л":{"ha":599,"x_min":0,"x_max":0,"o":"m 135 971 b 91 232 135 971 96 303 b 0 117 87 167 79 117 l 0 -9 b 226 238 158 -9 218 86 b 263 861 231 361 253 713 l 403 861 l 403 -1 l 550 -1 l 550 971 z "},"М":{"ha":765,"x_min":0,"x_max":0,"o":"m 488 972 l 382 294 l 276 972 l 49 972 l 49 0 l 195 0 l 195 646 l 326 0 l 439 0 l 569 646 l 569 0 l 716 0 l 716 972 z "},"м":{"ha":765,"x_min":0,"x_max":0,"o":"m 488 972 l 382 294 l 276 972 l 49 972 l 49 0 l 195 0 l 195 646 l 326 0 l 439 0 l 569 646 l 569 0 l 716 0 l 716 972 z "},"Н":{"ha":592,"x_min":0,"x_max":0,"o":"m 397 972 l 397 569 l 195 569 l 195 972 l 49 972 l 49 0 l 195 0 l 195 451 l 397 451 l 397 0 l 543 0 l 543 972 z "},"н":{"ha":592,"x_min":0,"x_max":0,"o":"m 397 972 l 397 569 l 195 569 l 195 972 l 49 972 l 49 0 l 195 0 l 195 451 l 397 451 l 397 0 l 543 0 l 543 972 z "},"О":{"ha":551,"x_min":0,"x_max":0,"o":"m 276 979 b 40 744 124 979 40 895 l 40 226 b 276 -9 40 75 124 -9 b 511 226 427 -9 511 75 l 511 744 b 276 979 511 895 427 979 z m 363 204 b 276 117 363 148 332 117 b 189 204 220 117 189 148 l 189 774 b 276 861 189 830 220 861 b 363 774 332 861 363 830 z "},"о":{"ha":551,"x_min":0,"x_max":0,"o":"m 276 979 b 40 744 124 979 40 895 l 40 226 b 276 -9 40 75 124 -9 b 511 226 427 -9 511 75 l 511 744 b 276 979 511 895 427 979 z m 363 204 b 276 117 363 148 332 117 b 189 204 220 117 189 148 l 189 774 b 276 861 189 830 220 861 b 363 774 332 861 363 830 z "},"П":{"ha":592,"x_min":0,"x_max":0,"o":"m 49 972 l 49 0 l 195 0 l 195 862 l 397 862 l 397 0 l 543 0 l 543 972 z "},"п":{"ha":592,"x_min":0,"x_max":0,"o":"m 49 972 l 49 0 l 195 0 l 195 862 l 397 862 l 397 0 l 543 0 l 543 972 z "},"Р":{"ha":538,"x_min":0,"x_max":0,"o":"m 325 972 l 49 972 l 49 0 l 195 0 l 195 352 l 325 352 b 521 547 450 352 521 422 l 521 777 b 325 973 521 902 451 973 z m 386 587 b 264 465 386 508 343 465 l 195 465 l 195 862 l 264 862 b 386 741 343 862 386 819 z "},"р":{"ha":538,"x_min":0,"x_max":0,"o":"m 325 972 l 49 972 l 49 0 l 195 0 l 195 352 l 325 352 b 521 547 450 352 521 422 l 521 777 b 325 973 521 902 451 973 z m 386 587 b 264 465 386 508 343 465 l 195 465 l 195 862 l 264 862 b 386 741 343 862 386 819 z "},"С":{"ha":519,"x_min":0,"x_max":0,"o":"m 499 772 b 292 979 499 905 425 979 l 249 979 b 42 772 116 979 42 905 l 42 198 b 249 -9 42 65 116 -9 l 292 -9 b 499 198 425 -9 499 65 l 499 230 l 355 230 l 355 204 b 268 117 355 148 324 117 b 182 204 213 117 182 148 l 182 774 b 268 861 182 830 213 861 b 355 774 324 861 355 830 l 355 650 l 499 650 z "},"с":{"ha":519,"x_min":0,"x_max":0,"o":"m 499 772 b 292 979 499 905 425 979 l 249 979 b 42 772 116 979 42 905 l 42 198 b 249 -9 42 65 116 -9 l 292 -9 b 499 198 425 -9 499 65 l 499 230 l 355 230 l 355 204 b 268 117 355 148 324 117 b 182 204 213 117 182 148 l 182 774 b 268 861 182 830 213 861 b 355 774 324 861 355 830 l 355 650 l 499 650 z "},"Т":{"ha":457,"x_min":0,"x_max":0,"o":"m -11 973 l -11 862 l 155 862 l 155 0 l 301 0 l 301 862 l 467 862 l 467 973 z "},"т":{"ha":457,"x_min":0,"x_max":0,"o":"m -11 973 l -11 862 l 155 862 l 155 0 l 301 0 l 301 862 l 467 862 l 467 973 z "},"У":{"ha":551,"x_min":0,"x_max":0,"o":"m 360 971 l 360 463 l 291 463 b 169 585 213 463 169 507 l 169 971 l 35 971 l 35 546 b 231 350 35 420 105 350 l 360 350 l 360 208 b 269 117 360 150 328 117 b 177 208 210 117 177 150 l 177 230 l 45 230 l 45 215 b 269 -9 45 71 125 -9 b 507 215 413 -9 507 71 l 507 971 z "},"у":{"ha":551,"x_min":0,"x_max":0,"o":"m 360 971 l 360 463 l 291 463 b 169 585 213 463 169 507 l 169 971 l 35 971 l 35 546 b 231 350 35 420 105 350 l 360 350 l 360 208 b 269 117 360 150 328 117 b 177 208 210 117 177 150 l 177 230 l 45 230 l 45 215 b 269 -9 45 71 125 -9 b 507 215 413 -9 507 71 l 507 971 z "},"Ф":{"ha":868,"x_min":0,"x_max":0,"o":"m 637 972 l 231 972 b 35 777 105 972 35 902 l 35 314 b 231 118 35 188 105 118 l 360 118 l 360 0 l 507 0 l 507 118 l 637 118 b 832 314 762 118 832 188 l 832 777 b 637 972 832 902 762 972 z m 360 232 l 291 232 b 169 353 213 232 169 275 l 169 741 b 291 862 169 819 213 862 l 360 862 z m 698 353 b 576 232 698 275 655 232 l 507 232 l 507 862 l 576 862 b 698 741 655 862 698 819 z "},"ф":{"ha":868,"x_min":0,"x_max":0,"o":"m 637 972 l 231 972 b 35 777 105 972 35 902 l 35 314 b 231 118 35 188 105 118 l 360 118 l 360 0 l 507 0 l 507 118 l 637 118 b 832 314 762 118 832 188 l 832 777 b 637 972 832 902 762 972 z m 360 232 l 291 232 b 169 353 213 232 169 275 l 169 741 b 291 862 169 819 213 862 l 360 862 z m 698 353 b 576 232 698 275 655 232 l 507 232 l 507 862 l 576 862 b 698 741 655 862 698 819 z "},"Х":{"ha":554,"x_min":0,"x_max":0,"o":"m 384 494 l 545 972 l 399 972 l 277 591 l 155 972 l 9 972 l 170 494 l 3 0 l 143 0 l 277 397 l 411 0 l 551 0 z "},"х":{"ha":554,"x_min":0,"x_max":0,"o":"m 384 494 l 545 972 l 399 972 l 277 591 l 155 972 l 9 972 l 170 494 l 3 0 l 143 0 l 277 397 l 411 0 l 551 0 z "},"Ц":{"ha":619,"x_min":0,"x_max":0,"o":"m 543 118 l 543 972 l 397 972 l 397 118 l 195 118 l 195 972 l 49 972 l 49 0 l 483 0 l 483 -150 l 603 -150 l 603 118 z "},"ц":{"ha":619,"x_min":0,"x_max":0,"o":"m 543 118 l 543 972 l 397 972 l 397 118 l 195 118 l 195 972 l 49 972 l 49 0 l 483 0 l 483 -150 l 603 -150 l 603 118 z "},"Ч":{"ha":540,"x_min":0,"x_max":0,"o":"m 345 972 l 345 465 l 276 465 b 154 587 197 465 154 508 l 154 972 l 19 972 l 19 547 b 215 352 19 422 90 352 l 345 352 l 345 0 l 491 0 l 491 972 z "},"ч":{"ha":540,"x_min":0,"x_max":0,"o":"m 345 972 l 345 465 l 276 465 b 154 587 197 465 154 508 l 154 972 l 19 972 l 19 547 b 215 352 19 422 90 352 l 345 352 l 345 0 l 491 0 l 491 972 z "},"Ш":{"ha":857,"x_min":0,"x_max":0,"o":"m 661 972 l 661 118 l 495 118 l 495 972 l 361 972 l 361 118 l 195 118 l 195 972 l 49 972 l 49 0 l 808 0 l 808 972 z "},"ш":{"ha":857,"x_min":0,"x_max":0,"o":"m 661 972 l 661 118 l 495 118 l 495 972 l 361 972 l 361 118 l 195 118 l 195 972 l 49 972 l 49 0 l 808 0 l 808 972 z "},"Щ":{"ha":883,"x_min":0,"x_max":0,"o":"m 808 118 l 808 972 l 661 972 l 661 118 l 495 118 l 495 972 l 361 972 l 361 118 l 195 118 l 195 972 l 49 972 l 49 0 l 748 0 l 748 -150 l 868 -150 l 868 118 z "},"щ":{"ha":883,"x_min":0,"x_max":0,"o":"m 808 118 l 808 972 l 661 972 l 661 118 l 495 118 l 495 972 l 361 972 l 361 118 l 195 118 l 195 972 l 49 972 l 49 0 l 748 0 l 748 -150 l 868 -150 l 868 118 z "},"Ъ":{"ha":565,"x_min":0,"x_max":0,"o":"m 351 621 l 222 621 l 222 972 l 15 972 l 15 862 l 75 862 l 75 0 l 351 0 b 547 196 477 0 547 70 l 547 425 b 351 621 547 551 477 621 z m 413 240 b 291 118 413 162 369 118 l 222 118 l 222 508 l 291 508 b 413 386 369 508 413 464 z "},"ъ":{"ha":565,"x_min":0,"x_max":0,"o":"m 351 621 l 222 621 l 222 972 l 15 972 l 15 862 l 75 862 l 75 0 l 351 0 b 547 196 477 0 547 70 l 547 425 b 351 621 547 551 477 621 z m 413 240 b 291 118 413 162 369 118 l 222 118 l 222 508 l 291 508 b 413 386 369 508 413 464 z "},"Ы":{"ha":786,"x_min":0,"x_max":0,"o":"m 325 621 l 195 621 l 195 972 l 49 972 l 49 0 l 325 0 b 521 196 451 0 521 70 l 521 425 b 325 621 521 551 451 621 z m 386 240 b 264 118 386 162 343 118 l 195 118 l 195 508 l 264 508 b 386 386 343 508 386 464 z m 737 0 l 737 972 l 604 972 l 604 0 z "},"ы":{"ha":786,"x_min":0,"x_max":0,"o":"m 325 621 l 195 621 l 195 972 l 49 972 l 49 0 l 325 0 b 521 196 451 0 521 70 l 521 425 b 325 621 521 551 451 621 z m 386 240 b 264 118 386 162 343 118 l 195 118 l 195 508 l 264 508 b 386 386 343 508 386 464 z m 737 0 l 737 972 l 604 972 l 604 0 z "},"Ь":{"ha":538,"x_min":0,"x_max":0,"o":"m 325 621 l 195 621 l 195 972 l 49 972 l 49 0 l 325 0 b 521 196 451 0 521 70 l 521 425 b 325 621 521 551 451 621 z m 386 240 b 264 118 386 162 343 118 l 195 118 l 195 508 l 264 508 b 386 386 343 508 386 464 z "},"ь":{"ha":538,"x_min":0,"x_max":0,"o":"m 325 621 l 195 621 l 195 972 l 49 972 l 49 0 l 325 0 b 521 196 451 0 521 70 l 521 425 b 325 621 521 551 451 621 z m 386 240 b 264 118 386 162 343 118 l 195 118 l 195 508 l 264 508 b 386 386 343 508 386 464 z "},"Э":{"ha":525,"x_min":0,"x_max":0,"o":"m 275 979 l 232 979 b 25 772 99 979 25 905 l 25 650 l 169 650 l 169 774 b 256 861 169 830 200 861 b 342 774 311 861 342 830 l 342 567 l 92 567 l 92 449 l 342 449 l 342 204 b 256 117 342 148 311 117 b 169 204 200 117 169 148 l 169 230 l 25 230 l 25 198 b 232 -9 25 65 99 -9 l 275 -9 b 482 198 408 -9 482 65 l 482 772 b 275 979 482 905 408 979 z "},"э":{"ha":525,"x_min":0,"x_max":0,"o":"m 275 979 l 232 979 b 25 772 99 979 25 905 l 25 650 l 169 650 l 169 774 b 256 861 169 830 200 861 b 342 774 311 861 342 830 l 342 567 l 92 567 l 92 449 l 342 449 l 342 204 b 256 117 342 148 311 117 b 169 204 200 117 169 148 l 169 230 l 25 230 l 25 198 b 232 -9 25 65 99 -9 l 275 -9 b 482 198 408 -9 482 65 l 482 772 b 275 979 482 905 408 979 z "},"Ю":{"ha":778,"x_min":0,"x_max":0,"o":"m 502 979 b 267 744 351 979 267 895 l 267 567 l 195 567 l 195 971 l 49 971 l 49 -1 l 195 -1 l 195 449 l 267 449 l 267 226 b 502 -9 267 75 351 -9 b 737 226 653 -9 737 75 l 737 744 b 502 979 737 895 653 979 z m 589 204 b 502 117 589 148 558 117 b 415 204 446 117 415 148 l 415 774 b 502 861 415 830 446 861 b 589 774 558 861 589 830 z "},"ю":{"ha":778,"x_min":0,"x_max":0,"o":"m 502 979 b 267 744 351 979 267 895 l 267 567 l 195 567 l 195 971 l 49 971 l 49 -1 l 195 -1 l 195 449 l 267 449 l 267 226 b 502 -9 267 75 351 -9 b 737 226 653 -9 737 75 l 737 744 b 502 979 737 895 653 979 z m 589 204 b 502 117 589 148 558 117 b 415 204 446 117 415 148 l 415 774 b 502 861 415 830 446 861 b 589 774 558 861 589 830 z "},"Я":{"ha":560,"x_min":0,"x_max":0,"o":"m 235 972 b 39 777 109 972 39 902 l 39 547 b 105 390 39 476 62 423 b 47 274 67 369 47 330 l 47 0 l 181 0 l 181 274 b 259 352 181 324 209 352 l 365 352 l 365 0 l 511 0 l 511 972 z m 365 465 l 295 465 b 173 587 217 465 173 508 l 173 740 b 295 862 173 819 217 862 l 365 862 z "},"я":{"ha":560,"x_min":0,"x_max":0,"o":"m 235 972 b 39 777 109 972 39 902 l 39 547 b 105 390 39 476 62 423 b 47 274 67 369 47 330 l 47 0 l 181 0 l 181 274 b 259 352 181 324 209 352 l 365 352 l 365 0 l 511 0 l 511 972 z m 365 465 l 295 465 b 173 587 217 465 173 508 l 173 740 b 295 862 173 819 217 862 l 365 862 z "}}}
